:SAMPLES-PER-SECOND 30
:FRAME-RANGE 1-2091
:FULLY-SPECIFIED
:DEGREES
1830
root  21.3894 38.3018 -8.91366 -179.782 28.5694 -174.748
RightUpLeg  12.4074 -27.8421 3.22183
RightLeg  18.2638 -2.28017 -0.32844
RightFoot  -21.2481 0.558464 8.09715
RightToes  5.82063e-011 0 -3.6325e-017
Spine  7.63225 6.68421 14.724
Spine1  -1.53724 11.1108 -19.3925
HEad  25.0327 -26.4983 -11.4648
LeftShoulder1  0.277632 2.71171 -28.9201
LeftArm  8.01448 29.2326 -19.3848
LeftForeArm  -0.874399 -11.6804 -13.8763
LeftHand  0.377607 0.0679638 -8.30563
RightShoulder  5.79052 26.3414 12.1486
RightArm  -8.45532 23.3121 5.93365
RightForeArm  39.242 6.67967 12.1953
RightHand  0.434432 3.33903 5.5318
LeftUpLeg  -16.1804 2.84829 -7.37653
LeftLeg  3.61086 12.6483 -5.96907
LeftFoot  5.06744 -1.35089 9.13421
LeftToes  -6.27584e-011 -2.25241e-010 2.80627e-011
1831
root  22.3709 37.9276 -9.69927 179.131 27.5678 -176.051
RightUpLeg  9.26383 -29.5436 0.173443
RightLeg  31.3472 2.62904 1.48927
RightFoot  -20.7305 1.01022 13.9594
RightToes  5.82063e-011 0 -3.6325e-017
Spine  8.71176 6.62798 12.6329
Spine1  -1.71206 11.0118 -19.4544
HEad  25.044 -27.9483 -10.8321
LeftShoulder1  0.302322 2.64873 -29.2328
LeftArm  6.59597 28.6856 -18.9387
LeftForeArm  -0.279683 -10.5866 -14.4423
LeftHand  0.354966 0.303498 -8.20737
RightShoulder  5.69343 25.934 12.0895
RightArm  -8.036 22.8062 5.80317
RightForeArm  40.5087 6.41146 12.2496
RightHand  0.450181 3.4867 5.63403
LeftUpLeg  -17.9016 2.64724 -10.379
LeftLeg  10.6283 13.2951 -1.45572
LeftFoot  4.85618 -2.69672 18.5679
LeftToes  -6.27584e-011 -2.25241e-010 2.80627e-011
1832
root  23.2163 37.5019 -10.3744 178.152 26.0274 -178.338
RightUpLeg  1.84746 -27.6718 -3.23673
RightLeg  48.524 5.30992 6.07689
RightFoot  -12.766 0.193123 22.3031
RightToes  5.82063e-011 0 -3.6325e-017
Spine  10.1271 6.33021 10.3986
Spine1  -2.09794 10.6504 -20.0832
HEad  24.0827 -29.4206 -10.2678
LeftShoulder1  0.412983 2.3603 -30.009
LeftArm  5.06518 26.3146 -19.018
LeftForeArm  0.68209 -9.12282 -15.1258
LeftHand  0.304477 0.756285 -7.81424
RightShoulder  5.35787 25.403 11.2124
RightArm  -9.45474 22.0264 5.42005
RightForeArm  41.661 5.53085 12.2688
RightHand  0.451177 3.37913 5.72452
LeftUpLeg  -20.8862 8.25726 -15.2354
LeftLeg  19.2198 5.99308 2.24123
LeftFoot  0.842119 -1.95616 18.1177
LeftToes  -6.27584e-011 -2.25241e-010 2.80627e-011
1833
root  23.91 37.0455 -10.8456 177.284 25.0628 179.181
RightUpLeg  -7.86945 -22.3981 -5.5778
RightLeg  63.85 4.98286 10.4076
RightFoot  -0.0294002 -2.0309 20.3064
RightToes  5.82063e-011 0 -3.6325e-017
Spine  11.7741 6.35375 8.38227
Spine1  -1.43543 10.8562 -21.409
HEad  22.1681 -30.7802 -10.0274
LeftShoulder1  0.524266 2.07595 -30.622
LeftArm  3.89789 23.3122 -20.1974
LeftForeArm  2.14078 -8.7482 -15.1554
LeftHand  0.299865 0.780794 -7.74303
RightShoulder  4.85163 25.0816 9.48935
RightArm  -10.2931 21.1768 4.44651
RightForeArm  43.2624 4.36498 12.429
RightHand  0.495129 3.39763 6.2899
LeftUpLeg  -22.784 8.34806 -17.5405
LeftLeg  24.9004 5.702 3.23927
LeftFoot  -2.40292 -1.4379 18.4113
LeftToes  -6.27584e-011 -2.25241e-010 2.80627e-011
1834
root  24.5545 36.8092 -11.2474 177.021 24.3306 177.564
RightUpLeg  -16.2727 -17.156 -7.31929
RightLeg  73.8666 2.43667 8.56679
RightFoot  2.74688 -2.33126 18.8628
RightToes  5.82063e-011 0 -3.6325e-017
Spine  13.5827 6.01976 7.18612
Spine1  -1.39057 10.7709 -23.0752
HEad  20.7366 -31.3052 -10.0029
LeftShoulder1  0.591168 1.91986 -31.2343
LeftArm  7.68762 21.5163 -21.5092
LeftForeArm  -0.22761 -12.1606 -13.4932
LeftHand  0.350224 0.339462 -8.16187
RightShoulder  4.35867 25.0993 7.56073
RightArm  -11.4244 20.6629 3.75887
RightForeArm  46.6255 2.53718 12.429
RightHand  0.507298 3.6593 6.24416
LeftUpLeg  -23.7535 8.02514 -18.5981
LeftLeg  28.2844 5.61903 3.64557
LeftFoot  -4.78292 -1.00675 17.9184
LeftToes  -6.27584e-011 -2.25241e-010 2.80627e-011
1835
root  25.252 36.9203 -11.7332 177.651 21.4899 177.288
RightUpLeg  -22.4152 -15.0043 -8.88343
RightLeg  78.328 0.856479 3.44934
RightFoot  2.04923 -1.77836 15.1876
RightToes  5.82063e-011 0 -3.6325e-017
Spine  14.1367 4.77739 6.5804
Spine1  -1.23117 9.59542 -23.3382
HEad  20.283 -31.8809 -9.94559
LeftShoulder1  0.707147 1.6406 -31.8719
LeftArm  15.5123 20.1021 -22.7352
LeftForeArm  -5.25916 -16.8678 -10.374
LeftHand  0.334326 0.0565498 -7.3403
RightShoulder  3.93777 24.6274 6.18209
RightArm  -11.1804 20.1848 3.36833
RightForeArm  48.1774 1.36495 12.6018
RightHand  0.472415 3.82568 5.6814
LeftUpLeg  -23.0811 6.22955 -18.3527
LeftLeg  29.0748 4.71327 3.21454
LeftFoot  -5.89979 -0.79157 17.2667
LeftToes  -6.27584e-011 -2.25241e-010 2.80627e-011
1836
root  25.93 37.3049 -12.3091 178.464 18.1832 177.831
RightUpLeg  -26.3505 -13.1877 -9.84472
RightLeg  77.5083 -0.089946 -1.92124
RightFoot  1.55854 -1.17016 10.4184
RightToes  5.82063e-011 0 -3.6325e-017
Spine  14.1639 3.66532 6.80189
Spine1  -1.03752 8.53096 -22.8665
HEad  21.0131 -33.1131 -9.78051
LeftShoulder1  0.831105 1.31103 -31.8262
LeftArm  20.97 18.6409 -24.1661
LeftForeArm  -6.91667 -20.3492 -7.28701
LeftHand  0.337961 -0.537377 -6.60136
RightShoulder  3.62877 23.4612 5.59223
RightArm  -8.54956 19.2846 3.14409
RightForeArm  49.4428 1.23035 13.1309
RightHand  0.627327 4.94744 6.72507
LeftUpLeg  -20.9817 3.28506 -17.142
LeftLeg  27.6968 4.34288 2.84746
LeftFoot  -6.12794 -0.710871 16.3094
LeftToes  -6.27584e-011 -2.25241e-010 2.80627e-011
1837
root  26.5887 37.7673 -12.9091 179.4 15.5939 178.469
RightUpLeg  -29.0197 -10.5265 -10.3998
RightLeg  72.8895 -1.44557 -6.28647
RightFoot  0.107276 -0.711548 7.09621
RightToes  5.82063e-011 0 -3.6325e-017
Spine  13.9703 3.10281 6.80464
Spine1  -1.15947 7.83111 -21.7619
HEad  22.1406 -33.8885 -9.85456
LeftShoulder1  0.910026 1.1126 -31.9849
LeftArm  21.7861 17.7045 -24.6395
LeftForeArm  -4.61284 -23.9726 -5.35477
LeftHand  0.347551 -1.17447 -6.06045
RightShoulder  3.435 22.4935 5.32976
RightArm  -4.58835 18.1906 3.23758
RightForeArm  50.6469 1.20551 13.6987
RightHand  0.440792 4.72098 4.7576
LeftUpLeg  -18.7328 1.32082 -15.6024
LeftLeg  25.3612 3.48412 1.96001
LeftFoot  -6.10547 -0.671645 15.3966
LeftToes  -6.27584e-011 -2.25241e-010 2.80627e-011
1838
root  27.2191 38.2543 -13.5014 -179.429 13.0954 179.252
RightUpLeg  -30.3197 -7.78054 -10.5842
RightLeg  64.7005 -3.6665 -9.01779
RightFoot  -0.921228 -0.57253 6.20306
RightToes  5.82063e-011 0 -3.6325e-017
Spine  13.6255 2.63251 6.91637
Spine1  -1.57293 7.18149 -20.5965
HEad  22.753 -33.9679 -9.4365
LeftShoulder1  0.918417 1.07357 -31.7193
LeftArm  16.9412 17.0934 -24.7398
LeftForeArm  1.53558 -27.5892 -5.86839
LeftHand  0.384948 -1.62151 -6.24896
RightShoulder  3.37434 21.6955 5.5386
RightArm  1.48311 16.7743 3.50099
RightForeArm  50.8049 2.12387 14.3162
RightHand  0.358844 4.90916 3.73755
LeftUpLeg  -16.6252 -0.306114 -13.77
LeftLeg  22.4268 2.39862 0.81359
LeftFoot  -5.66758 -0.700203 14.7339
LeftToes  -6.27584e-011 -2.25241e-010 2.80627e-011
1839
root  27.8148 38.7102 -14.0997 -178.383 10.1705 -179.965
RightUpLeg  -29.6268 -5.70743 -10.7113
RightLeg  53.1157 -6.23087 -9.20718
RightFoot  -0.963496 -0.617163 6.71531
RightToes  5.82063e-011 0 -3.6325e-017
Spine  13.2787 2.11712 7.18992
Spine1  -1.98346 6.46723 -19.3708
HEad  22.6293 -33.1123 -8.68239
LeftShoulder1  0.920544 1.03357 -31.1921
LeftArm  13.0328 16.5493 -24.6817
LeftForeArm  5.50766 -31.2402 -6.54487
LeftHand  0.408801 -1.69492 -6.56806
RightShoulder  3.33575 20.6082 6.04915
RightArm  8.3888 14.8661 3.87172
RightForeArm  49.7305 4.18383 14.5125
RightHand  0.105266 5.5077 0.800853
LeftUpLeg  -14.4109 -1.56938 -12.0808
LeftLeg  19.2636 0.531475 -0.236232
LeftFoot  -5.02776 -0.758898 14.232
LeftToes  -6.27584e-011 -2.25241e-010 2.80627e-011
1840
root  28.4006 39.0703 -14.7312 -177.351 6.96803 -179.376
RightUpLeg  -27.2405 -3.83997 -10.9494
RightLeg  38.6528 -8.50073 -7.48428
RightFoot  -0.824774 -0.831378 8.95447
RightToes  5.82063e-011 0 -3.6325e-017
Spine  12.6552 1.66515 7.2594
Spine1  -2.32576 5.7215 -17.9515
HEad  21.9233 -30.9292 -7.61218
LeftShoulder1  0.940186 0.945981 -30.6816
LeftArm  9.93438 16.2761 -24.1865
LeftForeArm  8.69625 -34.9089 -7.33166
LeftHand  0.409414 -1.63829 -6.63684
RightShoulder  3.25674 19.0635 6.73545
RightArm  18.7868 12.9729 4.70564
RightForeArm  45.2962 8.26653 13.8083
RightHand  -0.362577 5.20129 -4.2776
LeftUpLeg  -12.5696 -1.68936 -10.6397
LeftLeg  16.6169 -2.64426 -1.34484
LeftFoot  -4.639 -0.793897 13.9621
LeftToes  -6.27584e-011 -2.25241e-010 2.80627e-011
1841
root  28.9853 39.2828 -15.4065 -176.576 4.04927 -179.292
RightUpLeg  -23.9423 0.0799855 -12.0212
RightLeg  23.4328 -6.68976 -3.37885
RightFoot  -0.445566 -1.00264 10.4536
RightToes  5.82063e-011 0 -3.6325e-017
Spine  12.1459 1.37687 6.7723
Spine1  -2.64521 5.10496 -16.6199
HEad  20.76 -27.3799 -6.43102
LeftShoulder1  0.950765 0.899253 -30.4265
LeftArm  7.53678 15.9485 -23.4483
LeftForeArm  11.5133 -37.8315 -7.99838
LeftHand  0.389856 -1.70194 -6.25051
RightShoulder  3.21684 17.7797 7.51413
RightArm  35.6849 10.2262 6.10558
RightForeArm  35.3304 15.0892 10.3774
RightHand  -0.713878 3.94491 -9.12675
LeftUpLeg  -11.2463 -1.96112 -9.79256
LeftLeg  15.3092 -5.4104 -1.86713
LeftFoot  -4.94882 -0.722701 13.411
LeftToes  -6.27584e-011 -2.25241e-010 2.80627e-011
1842
root  29.5917 39.3235 -16.1383 -176.474 1.12787 -179.532
RightUpLeg  -20.1373 4.59569 -12.6029
RightLeg  11.1475 1.09846 -1.58999
RightFoot  -1.0571 -1.30647 14.3678
RightToes  5.82063e-011 0 -3.6325e-017
Spine  12.0061 1.12061 6.03269
Spine1  -2.64568 4.6282 -15.7039
HEad  18.9857 -23.0955 -4.95766
LeftShoulder1  0.953824 0.868347 -30.1113
LeftArm  5.69244 15.419 -22.7826
LeftForeArm  13.3393 -40.1058 -8.58207
LeftHand  0.342333 -1.53169 -5.62339
RightShoulder  3.28182 16.393 9.07131
RightArm  45.9928 7.16955 7.34779
RightForeArm  27.7257 20.436 5.64766
RightHand  -0.888802 3.6453 -11.6409
LeftUpLeg  -10.1417 -2.85521 -9.44638
LeftLeg  15.9513 -7.28479 -1.84787
LeftFoot  -6.39779 -0.518544 12.8497
LeftToes  -6.27584e-011 -2.25241e-010 2.80627e-011
1843
root  30.1899 39.242 -16.89 -176.633 -1.86945 -179.912
RightUpLeg  -17.188 0.609228 -9.73722
RightLeg  5.19845 13.94 -3.34539
RightFoot  -1.01732 -1.61006 17.6162
RightToes  5.82063e-011 0 -3.6325e-017
Spine  12.2677 0.961295 5.49694
Spine1  -2.68846 4.24194 -14.8299
HEad  17.3648 -18.8258 -3.78036
LeftShoulder1  0.984681 0.77732 -30.0352
LeftArm  4.19594 14.6917 -22.2313
LeftForeArm  14.5705 -41.4362 -8.93286
LeftHand  0.304001 -1.47118 -5.02912
RightShoulder  3.29594 14.4162 11.2036
RightArm  45.7141 4.45382 8.55876
RightForeArm  29.6955 24.9535 3.77657
RightHand  -0.865607 3.69161 -11.2907
LeftUpLeg  -9.50301 -6.37421 -9.24333
LeftLeg  18.0896 -6.67935 -1.37832
LeftFoot  -8.69551 -0.217212 11.636
LeftToes  -6.27584e-011 -2.25241e-010 2.80627e-011
1844
root  30.6944 39.1597 -17.5787 -176.46 -4.85124 -179.507
RightUpLeg  -17.3393 0.788819 -8.63167
RightLeg  8.28752 12.6786 -2.26892
RightFoot  -0.388654 -1.48895 15.4167
RightToes  5.82063e-011 0 -3.6325e-017
Spine  12.7449 0.837113 6.78889
Spine1  -3.02824 3.87425 -13.5651
HEad  16.417 -14.1709 -3.62384
LeftShoulder1  0.999685 0.736436 -30.0445
LeftArm  3.11356 14.3053 -21.865
LeftForeArm  15.1488 -42.3369 -9.19668
LeftHand  0.267781 -1.40091 -4.46738
RightShoulder  3.30994 12.4852 13.7745
RightArm  42.8856 2.04951 10.2341
RightForeArm  32.1371 27.8524 4.27179
RightHand  -0.715101 3.88999 -9.1925
LeftUpLeg  -9.7534 -12.9552 -7.88641
LeftLeg  20.6926 -3.15573 -0.981631
LeftFoot  -11.0131 0.0378051 9.96095
LeftToes  -6.27584e-011 -2.25241e-010 2.80627e-011
